<?xml version="1.0" encoding="utf-8"?>
<!-- Generator: Adobe Illustrator 16.0.0, SVG Export Plug-In . SVG Version: 6.00 Build 0)  -->
<!DOCTYPE svg PUBLIC "-//W3C//DTD SVG 1.1//EN" "http://www.w3.org/Graphics/SVG/1.1/DTD/svg11.dtd">
<svg version="1.1" id="Layer_1" xmlns="http://www.w3.org/2000/svg" xmlns:xlink="http://www.w3.org/1999/xlink" x="0px" y="0px"
	 width="517.133px" height="517.14px" viewBox="47.424 147.118 517.133 517.14"
	 enable-background="new 47.424 147.118 517.133 517.14" xml:space="preserve">
<path fill="#6962B0" d="M305.994,147.118c-142.578,0-258.57,115.992-258.57,258.569c0,142.578,115.992,258.57,258.57,258.57
	c142.583,0,258.577-115.992,258.577-258.57C564.57,263.11,448.577,147.118,305.994,147.118z M305.994,177.718
	c125.711,0,227.976,102.271,227.976,227.97c0,50.833-16.731,97.811-44.964,135.772c-7.056-5.826-19.51-12.13-41.572-16.279
	c-46.929-8.831-87.639-18.458-93.686-19.89c-4.749-12.534-4.981-25.147-4.345-33.813c20.073-12.007,28.788-39.045,32.533-54.504
	c2.137-0.251,4.321-0.919,6.512-2.332c7.234-4.59,11.971-9.357,14.34-27.167c2.02-15.239,0.177-24.357-5.686-27.791
	c-2.252-1.347-4.798-1.53-7.234-1.157c0-3.36,12.326-19.339,13.685-28.336c1.604-10.894-1.952-26.316-5.153-34.517
	c-1.78-4.719-3.494-9.119-3.916-13.219c-1.065-10.159-7.521-12.491-18.128-16.34c-4.388-1.53-9.896-15.79-16.53-18.727
	c-12.913-5.814-16.652-5.447-23.231-4.101c-4.32,0.857-10.189,2.081-23.58,0.795c-30.337-2.999-53.391-11.016-53.624-11.077
	l-1.903,5.753c0.061,0.061,0.477,0.184,1.071,0.367c0.833,2.448,2.724,7.222,5.924,11.2c-6.334,0-14.688,1.041-22.338,5.569
	c-13.091,7.772-15.692,13.342-16.53,18.177c0,0.061,0,0.122,0,0.122c-0.41,0.184-0.887,0.429-1.481,0.734
	c-4.792,2.393-14.872,7.405-14.272,20.753c0.232,4.462-0.361,9.18-0.894,13.703c-1.242,10.581-2.546,21.604,5.166,31.646
	c2.423,3.182,9.18,14.621,9.479,17.497c-2.491-0.374-4.981-0.184-7.233,1.157c-5.869,3.433-7.76,12.552-5.692,27.791
	c2.375,17.81,7.05,22.577,14.345,27.167c2.185,1.407,4.382,2.081,6.512,2.332c3.642,15.043,11.977,41.064,30.906,53.519
	c0.728,8.673,0.575,21.738-4.37,34.805c-6.035,1.433-46.751,11.059-93.679,19.891c-22.044,4.148-34.486,10.306-41.548,16.119
	C94.695,503.388,78.005,456.459,78.005,405.7C78.03,279.989,180.295,177.718,305.994,177.718z"/>
</svg>
