<?xml version="1.0" encoding="utf-8"?>
<!-- Generator: Adobe Illustrator 20.1.0, SVG Export Plug-In . SVG Version: 6.00 Build 0)  -->
<svg version="1.1" id="Layer_1" xmlns="http://www.w3.org/2000/svg" xmlns:xlink="http://www.w3.org/1999/xlink" x="0px" y="0px"
	 viewBox="0 0 201 207" style="enable-background:new 0 0 201 207;" xml:space="preserve">
<style type="text/css">
	.st0{fill:#FFFFFF;}
</style>
<image style="overflow:visible;" width="450" height="470" xlink:href="75E2D646.jpg"  transform="matrix(1 0 0 1 -612.39569 -91.69785)">
</image>
<path class="st0" d="M-277.60889,72.17746L-296,55.49526V30h-18v9.06357l-15.02197-13.60775
	c-0.66574-0.60776-1.74323-0.60776-2.40897,0l-51.44168,46.72164C-384.05048,73.25275-383.31885,75-381.72397,75H-368v38.52882
	c0,1.24258,1.07294,2.47118,2.31549,2.47118H-340V91.69414C-340,90.45158-339.48618,89-338.24362,89h16.67111
	C-320.32996,89-320,90.45158-320,91.69414V116h26.08969c1.24255,0,1.91031-1.22859,1.91031-2.47118V75h13.09641
	C-277.30875,75-276.43103,73.25275-277.60889,72.17746z"/>
<path class="st0" d="M100.66669,1.47369c-54.95233,0-99.5,42.4035-99.5,94.71094c0,27.26563,12.10852,51.83575,31.4809,69.11652
	l-4.05945,40.85522l42.91309-19.39911c9.22412,2.68799,19.01642,4.13831,29.16547,4.13831c54.95233,0,99.5-42.40356,99.5-94.71094
	C200.16669,43.8772,155.61902,1.47369,100.66669,1.47369z M147.82178,98.47369h-10.87683l-3.36328,31.97333
	c-0.10846,1.03198-0.77026,2.02667-1.80225,2.02667h-21.66803l2.12164-19.97449c0.10846-1.03198-0.03882-2.02551-1.0708-2.02551
	h-13.8457c-1.03198,0-1.58545,0.99353-1.69391,2.02551l-2.1217,19.97449H72.16937c-1.03198,0-1.8158-1.07043-1.70734-2.10242
	l0.5025-4.89758H59.16669v-3h23.04272l0.12396-3H71.62555l0.35016-3.875H52.16669v-3.125h20.17712h15.82288v-3H72.59973l0.36584-3
	H40.16669v-3h44v-3H73.60382l0.22144-2H62.42719c-1.32452,0-1.77966-1.51282-0.70758-2.40582l46.80182-38.86499
	c0.60596-0.50476,1.50085-0.57666,2.00073-0.0719l11.28821,11.15778l0.7912-7.81506h14.9494l-2.22552,21.47479l13.81799,14.15533
	C150.02783,96.99683,149.14636,98.47369,147.82178,98.47369z"/>
<image style="overflow:visible;" width="475" height="37" xlink:href="75E2D643.jpg"  transform="matrix(0.99987 0 0 0.99987 -690 121.50231)">
</image>
<path class="st0" d="M-204.02325,207.63013l-13.81799-14.15533L-215.61572,172h-14.9494l-0.7912,7.81506l-11.28821-11.15778
	c-0.49988-0.50476-1.39478-0.43286-2.00073,0.0719l-46.80182,38.86499C-292.51917,208.48718-292.06403,210-290.7395,210h11.39807
	l-0.22144,2H-269v3h-44v3h32.79889l-0.36584,3H-265v3h-15.82288H-301v4h19.80902l-0.35016,3h10.70782l-0.12396,3H-294v3h11.79785
	l-0.5025,4.89758C-282.81311,242.92957-282.0293,244-280.99731,244h21.33154l2.1217-19.97449
	c0.10846-1.03198,0.66193-2.02551,1.69391-2.02551h13.8457c1.03198,0,1.17926,0.99353,1.0708,2.02551L-243.0553,244h21.66803
	c1.03198,0,1.69379-0.99469,1.80225-2.02667L-216.22174,210h10.87683C-204.02032,210-203.13885,208.52313-204.02325,207.63013z"/>
</svg>
