<?xml version="1.0" encoding="utf-8"?>
<!-- Generator: Adobe Illustrator 20.1.0, SVG Export Plug-In . SVG Version: 6.00 Build 0)  -->
<svg version="1.1" id="Layer_1" xmlns="http://www.w3.org/2000/svg" xmlns:xlink="http://www.w3.org/1999/xlink" x="0px" y="0px"
	 viewBox="0 0 201 207" style="enable-background:new 0 0 201 207;" xml:space="preserve">
<style type="text/css">
	.st0{fill:#817CCE;}
	.st1{fill:#FFFFFF;}
</style>
<image style="overflow:visible;" width="450" height="470" xlink:href="4767CC46.jpg"  transform="matrix(1 0 0 1 -612.39569 -91.69785)">
</image>
<path class="st0" d="M100.66667,1.4737c-54.95233,0-99.5,42.4035-99.5,94.71094c0,27.26563,12.10852,51.83575,31.48089,69.11651
	l-4.05945,40.85522l42.91309-19.39911c9.22412,2.68799,19.01642,4.13831,29.16547,4.13831c54.95233,0,99.5-42.40356,99.5-94.71093
	C200.16667,43.8772,155.619,1.4737,100.66667,1.4737z"/>
<path class="st1" d="M-277.60889,72.17746L-296,55.49526V30h-18v9.06357l-15.02197-13.60775
	c-0.66574-0.60776-1.74323-0.60776-2.40897,0l-51.44168,46.72164C-384.05048,73.25275-383.31885,75-381.72397,75H-368v38.52882
	c0,1.24258,1.07294,2.47118,2.31549,2.47118H-340V91.69414C-340,90.45158-339.48618,89-338.24362,89h16.67111
	C-320.32996,89-320,90.45158-320,91.69414V116h26.08969c1.24255,0,1.91031-1.22859,1.91031-2.47118V75h13.09641
	C-277.30875,75-276.43103,73.25275-277.60889,72.17746z"/>
<path class="st1" d="M149.14342,96.10383l-13.81799-14.15533l2.22552-21.4748h-14.9494l-0.7912,7.81507l-11.28821-11.15778
	c-0.49988-0.50476-1.39478-0.43286-2.00073,0.0719L61.71959,96.06788c-1.07208,0.89301-0.61694,2.40582,0.70758,2.40582h11.39807
	l-0.22144,2h10.56287v3h-44v3h32.79889l-0.36584,3h15.56696v3H72.3438H52.16667v3.125h19.80902l-0.35016,3.875h10.70782l-0.12396,3
	H59.16667v3h11.79785l-0.5025,4.89758c-0.10846,1.03198,0.67535,2.10242,1.70734,2.10242H93.5009l2.1217-19.97448
	c0.10846-1.03198,0.66193-2.02551,1.69391-2.02551h13.8457c1.03198,0,1.17926,0.99353,1.0708,2.02551l-2.12164,19.97448h21.66803
	c1.03198,0,1.69379-0.99469,1.80225-2.02667l3.36328-31.97332h10.87683C149.14635,98.4737,150.02782,96.99683,149.14342,96.10383z"
	/>
<image style="overflow:visible;" width="475" height="37" xlink:href="4767CC4A.jpg"  transform="matrix(0.99987 0 0 0.99987 -690 121.50231)">
</image>
<path class="st1" d="M-204.02325,207.63013l-13.81799-14.15533L-215.61572,172h-14.9494l-0.7912,7.81506l-11.28821-11.15778
	c-0.49988-0.50476-1.39478-0.43286-2.00073,0.0719l-46.80182,38.86499C-292.51917,208.48718-292.06403,210-290.7395,210h11.39807
	l-0.22144,2H-269v3h-44v3h32.79889l-0.36584,3H-265v3h-15.82288H-301v4h19.80902l-0.35016,3h10.70782l-0.12396,3H-294v3h11.79785
	l-0.5025,4.89758C-282.81311,242.92957-282.0293,244-280.99731,244h21.33154l2.1217-19.97449
	c0.10846-1.03198,0.66193-2.02551,1.69391-2.02551h13.8457c1.03198,0,1.17926,0.99353,1.0708,2.02551L-243.0553,244h21.66803
	c1.03198,0,1.69379-0.99469,1.80225-2.02667L-216.22174,210h10.87683C-204.02032,210-203.13885,208.52313-204.02325,207.63013z"/>
</svg>
